<?xml version="1.0" encoding="UTF-8"?>
<!DOCTYPE svg PUBLIC "-//W3C//DTD SVG 1.1//EN" "http://www.w3.org/Graphics/SVG/1.1/DTD/svg11.dtd">
<svg xmlns="http://www.w3.org/2000/svg" version="1.1" width="512px" height="512px" style="shape-rendering:geometricPrecision; text-rendering:geometricPrecision; image-rendering:optimizeQuality; fill-rule:evenodd; clip-rule:evenodd" xmlns:xlink="http://www.w3.org/1999/xlink">
<g><path style="opacity:0.969" fill="#000000" d="M -0.5,117.5 C -0.5,111.833 -0.5,106.167 -0.5,100.5C 10.6465,73.7202 29.6465,66.2202 56.5,78C 70.1927,88.2214 75.3594,101.721 72,118.5C 64.3338,140.086 49.1672,148.92 26.5,145C 12.5447,140.546 3.54471,131.379 -0.5,117.5 Z"/></g>
<g><path style="opacity:0.984" fill="#000000" d="M 511.5,103.5 C 511.5,107.5 511.5,111.5 511.5,115.5C 509.981,118.021 508.314,120.521 506.5,123C 504.33,124.586 501.996,125.92 499.5,127C 385.833,127.667 272.167,127.667 158.5,127C 145.153,120.624 141.987,110.791 149,97.5C 151.778,94.1929 155.278,92.0262 159.5,91C 272.167,90.3333 384.833,90.3333 497.5,91C 504.28,92.9538 508.947,97.1204 511.5,103.5 Z"/></g>
<g><path style="opacity:0.969" fill="#000000" d="M -0.5,264.5 C -0.5,258.5 -0.5,252.5 -0.5,246.5C 8.60467,223.447 25.2713,214.947 49.5,221C 70.3653,231.579 77.1986,248.079 70,270.5C 60.3361,288.245 45.5028,295.078 25.5,291C 12.4534,286.362 3.78673,277.529 -0.5,264.5 Z"/></g>
<g><path style="opacity:0.96" fill="#000000" d="M 511.5,249.5 C 511.5,253.5 511.5,257.5 511.5,261.5C 508.834,268.323 503.834,272.49 496.5,274C 384.833,274.667 273.167,274.667 161.5,274C 147.693,270.227 142.86,261.394 147,247.5C 150.108,241.739 154.941,238.239 161.5,237C 273.167,236.333 384.833,236.333 496.5,237C 503.834,238.51 508.834,242.677 511.5,249.5 Z"/></g>
<g><path style="opacity:0.969" fill="#000000" d="M -0.5,410.5 C -0.5,404.833 -0.5,399.167 -0.5,393.5C 7.19318,371.812 22.5265,362.645 45.5,366C 68.3624,374.556 76.8624,390.723 71,414.5C 62.4874,433.176 47.9874,441.01 27.5,438C 12.985,433.984 3.65168,424.817 -0.5,410.5 Z"/></g>
<g><path style="opacity:0.984" fill="#000000" d="M 511.5,395.5 C 511.5,399.5 511.5,403.5 511.5,407.5C 508.947,413.88 504.28,418.046 497.5,420C 384.833,420.667 272.167,420.667 159.5,420C 150.129,417.435 145.462,411.268 145.5,401.5C 145.805,392.693 150.138,386.859 158.5,384C 272.167,383.333 385.833,383.333 499.5,384C 501.996,385.08 504.33,386.414 506.5,388C 508.314,390.479 509.981,392.979 511.5,395.5 Z"/></g>
</svg>
